HIERARCHY
ROOT Hips
{
	OFFSET 55.054199 -60.069317 96.744995
	CHANNELS 6 Xposition Yposition Zposition Xrotation Yrotation Zrotation
	JOINT spine
	{
		OFFSET 0.000000 -0.467659 8.132492
		CHANNELS 3 Xrotation Yrotation Zrotation
		JOINT spine1
		{
			OFFSET 0.000000 -0.000004 10.349800
			CHANNELS 3 Xrotation Yrotation Zrotation
			JOINT spine2
			{
				OFFSET 0.000000 0.000000 9.916992
				CHANNELS 3 Xrotation Yrotation Zrotation
				JOINT Neck
				{
					OFFSET 0.000000 -1.213905 25.460991
					CHANNELS 3 Xrotation Yrotation Zrotation
					JOINT Head
					{
						OFFSET 0.000000 -0.000004 7.692444
						CHANNELS 3 Xrotation Yrotation Zrotation
						End Site
						{
							OFFSET 0.000000 6.140625 18.619995
						}
					}
				}
				JOINT RightShoulder
				{
					OFFSET -4.175751 0.581440 10.709587
					CHANNELS 3 Xrotation Yrotation Zrotation
					JOINT RightArm
					{
						OFFSET 0.000000 0.000000 14.046600
						CHANNELS 3 Xrotation Yrotation Zrotation
						JOINT RightArmRoll
						{
							OFFSET 0.000000 -0.000004 7.090973
							CHANNELS 3 Xrotation Yrotation Zrotation
							JOINT RightForeArm
							{
								OFFSET 0.000000 -0.000004 20.653503
								CHANNELS 3 Xrotation Yrotation Zrotation
								JOINT RightForeArmRoll
								{
									OFFSET 0.000000 0.000000 7.957184
									CHANNELS 3 Xrotation Yrotation Zrotation
									JOINT RightHand
									{
										OFFSET 0.000000 -0.000004 15.968292
										CHANNELS 3 Xrotation Yrotation Zrotation
										End Site
										{
											OFFSET 0.000000 0.000000 0.100006
										}
									}
								}
							}
						}
					}
				}
				JOINT LeftShoulder
				{
					OFFSET 4.175751 0.581440 10.709587
					CHANNELS 3 Xrotation Yrotation Zrotation
					JOINT LeftArm
					{
						OFFSET 0.000000 0.000000 14.046600
						CHANNELS 3 Xrotation Yrotation Zrotation
						JOINT LeftArmRoll
						{
							OFFSET 0.000000 -0.000004 7.090973
							CHANNELS 3 Xrotation Yrotation Zrotation
							JOINT LeftForeArm
							{
								OFFSET 0.000000 -0.000004 20.653503
								CHANNELS 3 Xrotation Yrotation Zrotation
								JOINT LeftForeArmRoll
								{
									OFFSET 0.000000 0.000000 7.957184
									CHANNELS 3 Xrotation Yrotation Zrotation
									JOINT LeftHand
									{
										OFFSET 0.000000 -0.000004 15.968292
										CHANNELS 3 Xrotation Yrotation Zrotation
										End Site
										{
											OFFSET 0.000000 0.000000 0.100006
										}
									}
								}
							}
						}
					}
				}
			}
		}
	}
	JOINT RightUpLeg
	{
		OFFSET -7.208340 1.108841 -1.321823
		CHANNELS 3 Xrotation Yrotation Zrotation
		JOINT RightUpLegRoll
		{
			OFFSET 0.000000 -0.000004 18.723801
			CHANNELS 3 Xrotation Yrotation Zrotation
			JOINT RightLeg
			{
				OFFSET 0.000000 0.000004 -23.186600
				CHANNELS 3 Xrotation Yrotation Zrotation
				JOINT RightLegRoll
				{
					OFFSET 0.000000 -0.000004 23.262398
					CHANNELS 3 Xrotation Yrotation Zrotation
					JOINT RightFoot
					{
						OFFSET 0.000000 -0.000004 19.362099
						CHANNELS 3 Xrotation Yrotation Zrotation
						JOINT RightToeBase
						{
							OFFSET 0.000000 0.000000 16.185699
							CHANNELS 3 Xrotation Yrotation Zrotation
							End Site
							{
								OFFSET 0.006859 0.903519 7.838623
							}
						}
					}
				}
			}
		}
	}
	JOINT LeftUpLeg
	{
		OFFSET 7.208340 1.108841 -1.321823
		CHANNELS 3 Xrotation Yrotation Zrotation
		JOINT LeftUpLegRoll
		{
			OFFSET 0.000000 -0.000004 18.723900
			CHANNELS 3 Xrotation Yrotation Zrotation
			JOINT LeftLeg
			{
				OFFSET 0.000000 -0.000004 23.186501
				CHANNELS 3 Xrotation Yrotation Zrotation
				JOINT LeftLegRoll
				{
					OFFSET 0.000000 -0.000004 23.477509
					CHANNELS 3 Xrotation Yrotation Zrotation
					JOINT LeftFoot
					{
						OFFSET 0.000000 -0.000004 19.147003
						CHANNELS 3 Xrotation Yrotation Zrotation
						JOINT LeftToeBase
						{
							OFFSET 0.000000 0.000000 16.185699
							CHANNELS 3 Xrotation Yrotation Zrotation
							End Site
							{
								OFFSET -0.030746 0.903519 7.838623
							}
						}
					}
				}
			}
		}
	}
}
MOTION
Frames: 6
Frame Time: 0.041667
54.639206 -14.343903 56.619102 -2.041738 2.495846 -0.896110 0.451540 -0.627695 -0.321521 4.902529 -1.244522 -0.622164 6.547750 -1.251744 -0.607224 -3.211982 1.153976 -2.112754 -1.481593 -3.277956 -2.052727 -16.647459 -56.516216 -19.637470 -53.052429 -141.600080 -59.187776 0.000002 0.000026 -0.000005 32.126505 -14.104850 2.605711 0.000001 0.000002 -3.000001 -5.000208 -7.998754 0.000186 -19.230058 60.578526 22.718012 -59.131113 136.797829 68.904034 0.000001 0.000002 0.000003 28.927091 9.803884 -1.959632 -0.000010 0.000001 3.006060 -5.000343 7.998811 -0.000185 -84.762047 -166.262336 5.481801 179.999991 0.000004 -1.025999 96.260137 -2.421751 -5.173555 0.000001 0.000004 1.793309 68.384469 8.542797 -2.038958 25.456955 -7.355615 0.000058 -86.170855 166.247310 -2.262345 -0.000005 0.000011 -1.203470 -83.672980 -1.150196 1.748571 -0.000001 -0.000002 -2.176271 63.180739 -8.357980 0.809922 25.469548 7.355025 -0.015501 
54.640408 -14.344418 56.616596 -2.041176 2.495658 -0.897440 0.451915 -0.627376 -0.321541 4.903050 -1.244491 -0.623379 6.548259 -1.251495 -0.608443 -3.200268 1.151943 -2.113255 -1.478258 -3.277421 -2.053102 -16.644937 -56.518203 -19.634460 -53.050906 -141.600108 -59.189108 0.000003 0.000027 -0.000005 32.132765 -14.104874 2.606395 -0.000001 0.000001 -3.000001 -5.000206 -7.998755 0.000186 -19.232279 60.574482 22.721277 -59.129050 136.798471 68.894172 -0.000000 0.000002 0.000003 28.919093 9.803302 -1.958634 -0.000006 0.000000 3.006060 -5.000344 7.998815 -0.000184 -84.762491 -166.263443 5.484194 179.999991 0.000005 -1.025999 96.261435 -2.423125 -5.174450 0.000001 0.000004 1.793311 68.381743 8.544439 -2.042632 25.456948 -7.355613 0.000058 -86.172043 166.246873 -2.261813 -0.000005 0.000012 -1.203120 -83.673219 -1.150411 1.748283 -0.000002 -0.000002 -2.176530 63.178533 -8.358017 0.809744 25.469545 7.355025 -0.015500 
54.638908 -14.341515 56.617702 -2.040527 2.495479 -0.898842 0.452248 -0.627035 -0.321570 4.903480 -1.244450 -0.624671 6.548689 -1.251235 -0.609736 -3.188574 1.149729 -2.113704 -1.475042 -3.276736 -2.053431 -16.642106 -56.520328 -19.631086 -53.050120 -141.599602 -59.191410 0.000000 0.000026 -0.000005 32.138820 -14.104928 2.607068 -0.000000 0.000002 -3.000001 -5.000212 -7.998753 0.000186 -19.234555 60.570220 22.724630 -59.127705 136.798526 68.885128 0.000001 0.000003 0.000004 28.910879 9.802648 -1.957602 -0.000012 -0.000000 3.006058 -5.000339 7.998810 -0.000184 -84.762757 -166.264836 5.487810 179.999991 0.000004 -1.025999 96.262733 -2.424752 -5.175333 0.000001 0.000004 1.793309 68.378950 8.546188 -2.046580 25.456948 -7.355612 0.000057 -86.173239 166.246449 -2.261784 -0.000005 0.000011 -1.202760 -83.673465 -1.150639 1.747991 -0.000002 -0.000002 -2.176799 63.176231 -8.358044 0.809562 25.469547 7.355026 -0.015500 
54.645206 -14.359116 56.606293 -2.039836 2.495320 -0.900290 0.452561 -0.626679 -0.321605 4.903850 -1.244400 -0.626017 6.549069 -1.250946 -0.611083 -3.176899 1.147375 -2.114110 -1.471913 -3.275951 -2.053712 -16.639108 -56.522667 -19.627517 -53.048700 -141.599698 -59.192612 0.000004 0.000027 -0.000005 32.144680 -14.105009 2.607712 -0.000002 0.000002 -3.000001 -5.000207 -7.998752 0.000184 -19.236818 60.565760 22.727999 -59.125553 136.799113 68.874699 -0.000001 0.000003 0.000004 28.902557 9.802007 -1.956575 -0.000006 0.000000 3.006059 -5.000344 7.998813 -0.000186 -84.763249 -166.266052 5.490794 179.999991 0.000005 -1.025998 96.263942 -2.426348 -5.177226 0.000001 0.000004 1.793309 68.376068 8.547973 -2.050614 25.456947 -7.355614 0.000056 -86.174680 166.245957 -2.261131 -0.000005 0.000010 -1.202380 -83.673799 -1.150842 1.747702 -0.000002 -0.000002 -2.177090 63.173936 -8.358105 0.809470 25.469547 7.355026 -0.015501 
54.644508 -14.354019 56.609802 -2.039111 2.495161 -0.901768 0.452864 -0.626315 -0.321644 4.904190 -1.244350 -0.627393 6.549407 -1.250657 -0.612460 -3.165244 1.144942 -2.114489 -1.468841 -3.275096 -2.053964 -16.635988 -56.525027 -19.623798 -53.047914 -141.599193 -59.194825 0.000003 0.000026 -0.000004 32.150544 -14.105179 2.608422 -0.000001 0.000003 -3.000000 -5.000210 -7.998753 0.000185 -19.239150 60.561286 22.731445 -59.123313 136.799605 68.864112 0.000000 0.000003 0.000003 28.894128 9.801284 -1.955501 -0.000009 0.000002 3.006064 -5.000344 7.998811 -0.000186 -84.763522 -166.267459 5.494890 179.999991 0.000004 -1.025998 96.265246 -2.427981 -5.178105 0.000001 0.000003 1.793309 68.373199 8.549793 -2.054841 25.456957 -7.355616 0.000058 -86.176114 166.245452 -2.260666 -0.000005 0.000011 -1.202000 -83.674052 -1.151067 1.747411 -0.000002 -0.000002 -2.177392 63.171641 -8.358172 0.809375 25.469547 7.355024 -0.015500 
54.638508 -14.343307 56.618690 -2.038383 2.495012 -0.903254 0.453159 -0.625948 -0.321684 4.904519 -1.244299 -0.628776 6.549739 -1.250359 -0.613846 -3.153579 1.142499 -2.114867 -1.465772 -3.274230 -2.054216 -16.632819 -56.527393 -19.620021 -53.047228 -141.598742 -59.197099 0.000003 0.000026 -0.000004 32.156401 -14.105263 2.609086 0.000000 0.000003 -3.000001 -5.000211 -7.998755 0.000185 -19.241512 60.556806 22.734916 -59.120984 136.800028 68.853580 0.000002 0.000002 0.000003 28.885611 9.800662 -1.954469 -0.000008 0.000001 3.006060 -5.000346 7.998811 -0.000185 -84.764034 -166.268757 5.497973 179.999991 0.000004 -1.025999 96.266544 -2.429608 -5.178982 0.000001 0.000004 1.793309 68.370303 8.551579 -2.058874 25.456955 -7.355617 0.000058 -86.177521 166.244865 -2.260324 -0.000005 0.000010 -1.201610 -83.674394 -1.151269 1.747116 -0.000001 -0.000002 -2.177690 63.169250 -8.358266 0.809267 25.469543 7.355027 -0.015502 
